<svg width="16" height="15" viewBox="0 0 16 15" fill="none" xmlns="http://www.w3.org/2000/svg">
<path d="M6.59023 0.704727C6.88061 -0.234951 8.2107 -0.234951 8.50108 0.704727L9.57052 4.16551C9.7 4.58452 10.0874 4.87027 10.5259 4.87027H14.0894C15.0459 4.87027 15.4565 6.08425 14.6964 6.66492L11.7286 8.93211C11.3956 9.18652 11.2565 9.6216 11.3803 10.022L12.4933 13.6237C12.7807 14.554 11.7045 15.3047 10.9308 14.7136L8.15272 12.5914C7.79432 12.3176 7.29699 12.3176 6.93859 12.5914L4.16052 14.7136C3.38684 15.3047 2.31059 14.554 2.59804 13.6237L3.71103 10.022C3.83477 9.6216 3.6957 9.18652 3.36267 8.93211L0.394888 6.66492C-0.365225 6.08425 0.0454159 4.87027 1.00195 4.87027H4.56537C5.00393 4.87027 5.39131 4.58452 5.52079 4.16551L6.59023 0.704727Z" fill="#F25921"/>
</svg>
